<?xml version="1.0" encoding="UTF-8"?>
<svg xmlns="http://www.w3.org/2000/svg" xmlns:xlink="http://www.w3.org/1999/xlink" width="828.92pt" height="930.93pt" viewBox="0 0 828.92 930.93" version="1.1">
<defs>
<clipPath id="clip1">
  <path d="M 803 166 L 828.921875 166 L 828.921875 199 L 803 199 Z M 803 166 "/>
</clipPath>
<clipPath id="clip2">
  <path d="M 379 880 L 416 880 L 416 930.929688 L 379 930.929688 Z M 379 880 "/>
</clipPath>
</defs>
<g id="surface1">
<path style=" stroke:none;fill-rule:nonzero;fill:rgb(13.699341%,12.199402%,12.5%);fill-opacity:1;" d="M 299.265625 190.992188 L 300.941406 190.992188 C 299.214844 196.90625 294.898438 199.863281 287.992188 199.863281 C 283.550781 199.863281 279.808594 198.355469 276.777344 195.332031 C 273.742188 192.3125 272.226563 188.3125 272.226563 183.335938 C 272.226563 178.230469 273.863281 174.09375 277.136719 170.917969 C 280.414063 167.746094 284.285156 166.160156 288.753906 166.160156 C 291.445313 166.160156 293.921875 166.746094 296.179688 167.929688 C 298.441406 169.109375 299.570313 170.550781 299.570313 172.253906 C 299.570313 172.886719 299.359375 173.484375 298.941406 174.042969 C 298.523438 174.601563 297.921875 174.878906 297.132813 174.878906 C 295.457031 174.878906 294.429688 173.902344 294.050781 171.949219 C 293.742188 170.476563 293.273438 169.445313 292.640625 168.863281 C 291.980469 168.277344 290.695313 167.988281 288.792969 167.988281 C 285.390625 167.988281 282.832031 169.167969 281.117188 171.527344 C 279.402344 173.890625 278.546875 177.445313 278.546875 182.191406 C 278.546875 187.09375 279.46875 190.925781 281.308594 193.695313 C 283.148438 196.460938 285.9375 197.847656 289.667969 197.847656 C 294.695313 197.847656 297.894531 195.5625 299.265625 190.992188 "/>
<path style=" stroke:none;fill-rule:nonzero;fill:rgb(13.699341%,12.199402%,12.5%);fill-opacity:1;" d="M 324.597656 172.558594 C 326.121094 170.425781 327.828125 168.824219 329.722656 167.757813 C 331.613281 166.691406 333.6875 166.160156 335.949219 166.160156 C 338.511719 166.160156 340.640625 166.691406 342.328125 167.757813 C 344.015625 168.824219 345.113281 170.140625 345.621094 171.699219 C 346.132813 173.261719 346.386719 175.792969 346.386719 179.296875 L 346.386719 187.90625 C 346.386719 191.5625 346.453125 193.785156 346.59375 194.570313 C 346.734375 195.359375 347.144531 195.9375 347.832031 196.304688 C 348.515625 196.671875 349.785156 196.855469 351.640625 196.855469 L 351.640625 198.609375 L 335.53125 198.609375 L 335.53125 196.855469 L 336.253906 196.855469 C 338.105469 196.855469 339.304688 196.589844 339.851563 196.054688 C 340.398438 195.523438 340.714844 194.894531 340.804688 194.171875 C 340.894531 193.449219 340.9375 191.359375 340.9375 187.90625 L 340.9375 178.535156 C 340.9375 175.945313 340.785156 174.03125 340.480469 172.785156 C 340.175781 171.539063 339.460938 170.511719 338.328125 169.699219 C 337.199219 168.886719 335.785156 168.480469 334.082031 168.480469 C 332.101563 168.480469 330.324219 169.058594 328.75 170.214844 C 327.175781 171.371094 325.792969 173.101563 324.597656 175.414063 L 324.597656 187.90625 C 324.597656 191.410156 324.65625 193.566406 324.769531 194.378906 C 324.886719 195.191406 325.273438 195.808594 325.933594 196.226563 C 326.59375 196.648438 327.800781 196.855469 329.550781 196.855469 L 329.550781 198.609375 L 313.707031 198.609375 L 313.707031 196.855469 L 314.507813 196.855469 C 316.335938 196.855469 317.519531 196.597656 318.066406 196.074219 C 318.613281 195.554688 318.929688 194.933594 319.019531 194.210938 C 319.109375 193.484375 319.152344 191.382813 319.152344 187.90625 L 319.152344 156.828125 C 319.152344 153.679688 318.855469 151.6875 318.257813 150.847656 C 317.660156 150.011719 316.234375 149.589844 313.972656 149.589844 L 313.972656 147.839844 C 317.910156 147.839844 321.183594 147.304688 323.800781 146.238281 L 324.597656 146.238281 L 324.597656 172.558594 "/>
<path style=" stroke:none;fill-rule:nonzero;fill:rgb(13.699341%,12.199402%,12.5%);fill-opacity:1;" d="M 386.609375 179.566406 L 382.457031 181.242188 C 375.90625 183.90625 372.632813 187.257813 372.632813 191.296875 C 372.632813 192.894531 373.050781 194.183594 373.886719 195.160156 C 374.726563 196.140625 375.816406 196.628906 377.164063 196.628906 C 378.355469 196.628906 379.738281 196.234375 381.3125 195.445313 C 382.886719 194.660156 384.652344 193.480469 386.609375 191.90625 Z M 397.652344 192.894531 L 399.0625 192.894531 C 398.835938 197.238281 396.699219 199.40625 392.664063 199.40625 C 390.9375 199.40625 389.570313 198.949219 388.570313 198.035156 C 387.566406 197.121094 386.914063 195.765625 386.609375 193.960938 C 384.070313 195.765625 381.753906 197.121094 379.65625 198.035156 C 377.5625 198.949219 375.691406 199.40625 374.039063 199.40625 C 371.933594 199.40625 370.117188 198.796875 368.59375 197.578125 C 367.070313 196.359375 366.308594 194.746094 366.308594 192.742188 C 366.308594 190.128906 367.585938 187.84375 370.136719 185.886719 C 372.6875 183.933594 376.210938 182.027344 380.703125 180.175781 L 386.609375 177.773438 L 386.609375 176.25 C 386.609375 174.09375 386.46875 172.53125 386.1875 171.566406 C 385.910156 170.601563 385.1875 169.738281 384.019531 168.976563 C 382.851563 168.214844 381.3125 167.835938 379.410156 167.835938 C 375.601563 167.835938 373.480469 169.105469 373.050781 171.644531 C 372.644531 174.234375 371.578125 175.527344 369.851563 175.527344 C 368.300781 175.527344 367.527344 174.789063 367.527344 173.320313 C 367.527344 171.871094 368.554688 170.316406 370.613281 168.652344 C 372.667969 166.992188 375.867188 166.160156 380.210938 166.160156 C 383.433594 166.160156 385.933594 166.664063 387.714844 167.683594 C 389.488281 168.699219 390.664063 169.851563 391.234375 171.148438 C 391.808594 172.441406 392.09375 174.421875 392.09375 177.089844 L 392.09375 189.695313 C 392.09375 192.640625 392.246094 194.53125 392.550781 195.371094 C 392.855469 196.207031 393.515625 196.628906 394.53125 196.628906 C 396.207031 196.628906 397.246094 195.382813 397.652344 192.894531 "/>
<path style=" stroke:none;fill-rule:nonzero;fill:rgb(13.699341%,12.199402%,12.5%);fill-opacity:1;" d="M 422.835938 174.117188 C 423.695313 171.859375 425.101563 169.96875 427.042969 168.445313 C 428.984375 166.921875 430.882813 166.160156 432.734375 166.160156 C 434.410156 166.160156 435.730469 166.679688 436.695313 167.71875 C 437.660156 168.761719 438.144531 169.828125 438.144531 170.917969 C 438.144531 171.65625 437.898438 172.289063 437.402344 172.824219 C 436.90625 173.355469 436.304688 173.621094 435.59375 173.621094 C 434.324219 173.621094 433.359375 172.683594 432.699219 170.804688 C 432.242188 169.535156 431.554688 168.902344 430.640625 168.902344 C 429.550781 168.902344 428.242188 169.644531 426.71875 171.128906 C 425.195313 172.613281 424.21875 174.15625 423.785156 175.757813 C 423.355469 177.355469 423.136719 179.550781 423.136719 182.34375 L 423.136719 187.90625 C 423.136719 191.230469 423.183594 193.324219 423.273438 194.191406 C 423.359375 195.054688 423.722656 195.714844 424.355469 196.171875 C 424.992188 196.628906 426.121094 196.855469 427.746094 196.855469 L 428.8125 196.855469 L 428.8125 198.609375 L 412.246094 198.609375 L 412.246094 196.855469 L 413.046875 196.855469 C 414.570313 196.855469 415.65625 196.648438 416.300781 196.226563 C 416.949219 195.808594 417.335938 195.21875 417.464844 194.457031 C 417.589844 193.695313 417.652344 191.511719 417.652344 187.90625 L 417.652344 179.109375 C 417.652344 175.757813 417.609375 173.65625 417.519531 172.804688 C 417.429688 171.953125 417.070313 171.292969 416.433594 170.824219 C 415.800781 170.355469 414.671875 170.117188 413.046875 170.117188 L 412.246094 170.117188 L 412.246094 168.40625 C 414.632813 168.125 417.757813 167.378906 421.613281 166.160156 C 422.351563 168.164063 422.757813 170.816406 422.835938 174.117188 "/>
<path style=" stroke:none;fill-rule:nonzero;fill:rgb(13.699341%,12.199402%,12.5%);fill-opacity:1;" d="M 453.496094 150.238281 C 453.496094 149.148438 453.886719 148.207031 454.660156 147.421875 C 455.433594 146.632813 456.367188 146.238281 457.460938 146.238281 C 458.550781 146.238281 459.476563 146.632813 460.238281 147.421875 C 461 148.207031 461.382813 149.148438 461.382813 150.238281 C 461.382813 151.355469 461 152.308594 460.238281 153.09375 C 459.476563 153.882813 458.550781 154.277344 457.460938 154.277344 C 456.367188 154.277344 455.433594 153.882813 454.660156 153.09375 C 453.886719 152.308594 453.496094 151.355469 453.496094 150.238281 Z M 460.847656 166.160156 L 460.847656 187.90625 C 460.847656 191.230469 460.898438 193.324219 461 194.191406 C 461.101563 195.054688 461.472656 195.714844 462.105469 196.171875 C 462.738281 196.628906 463.871094 196.855469 465.496094 196.855469 L 466.296875 196.855469 L 466.296875 198.609375 L 449.5 198.609375 L 449.5 196.855469 L 450.792969 196.855469 C 452.597656 196.855469 453.769531 196.597656 454.316406 196.074219 C 454.863281 195.554688 455.179688 194.933594 455.269531 194.210938 C 455.355469 193.484375 455.402344 191.382813 455.402344 187.90625 L 455.402344 178.460938 C 455.402344 174.804688 455.230469 172.570313 454.886719 171.757813 C 454.546875 170.945313 454.089844 170.4375 453.515625 170.234375 C 452.945313 170.03125 451.949219 169.929688 450.527344 169.929688 L 449.5 169.929688 L 449.5 168.175781 C 454.019531 167.71875 457.523438 167.046875 460.011719 166.160156 L 460.847656 166.160156 "/>
<path style=" stroke:none;fill-rule:nonzero;fill:rgb(13.699341%,12.199402%,12.5%);fill-opacity:1;" d="M 499.167969 169.167969 L 489.761719 169.167969 L 489.761719 188.019531 C 489.761719 190.914063 489.886719 192.863281 490.140625 193.867188 C 490.394531 194.867188 490.933594 195.675781 491.761719 196.285156 C 492.585938 196.894531 493.46875 197.199219 494.40625 197.199219 C 496.234375 197.199219 497.824219 196.15625 499.167969 194.074219 L 500.386719 194.800781 C 499.601563 196.476563 498.4375 197.738281 496.902344 198.589844 C 495.367188 199.4375 493.8125 199.863281 492.238281 199.863281 C 490.410156 199.863281 488.804688 199.324219 487.417969 198.246094 C 486.035156 197.167969 485.171875 195.902344 484.828125 194.457031 C 484.488281 193.007813 484.316406 190.46875 484.316406 186.839844 L 484.316406 169.167969 L 479.78125 169.167969 L 479.78125 167.414063 C 481.863281 167.363281 483.730469 166.488281 485.382813 164.785156 C 487.03125 163.085938 488.085938 160.699219 488.542969 157.628906 L 489.761719 157.628906 L 489.761719 167.414063 L 499.167969 167.414063 L 499.167969 169.167969 "/>
<path style=" stroke:none;fill-rule:nonzero;fill:rgb(13.699341%,12.199402%,12.5%);fill-opacity:1;" d="M 530.710938 192.703125 L 537.945313 175.375 C 538.988281 172.835938 539.507813 171.425781 539.507813 171.148438 C 539.507813 169.878906 538.097656 169.21875 535.28125 169.167969 L 535.28125 167.414063 L 546.246094 167.414063 L 546.246094 169.167969 C 544.546875 169.242188 543.304688 169.695313 542.515625 170.519531 C 541.730469 171.34375 540.75 173.164063 539.582031 175.984375 L 525.683594 209.539063 C 524.363281 212.738281 523.195313 214.914063 522.179688 216.070313 C 521.164063 217.226563 520.046875 217.804688 518.828125 217.804688 C 517.175781 217.804688 516.351563 217.054688 516.351563 215.554688 C 516.351563 213.828125 517.671875 212.367188 520.3125 211.175781 C 521.859375 210.492188 522.894531 209.90625 523.414063 209.425781 C 523.9375 208.941406 524.449219 208.066406 524.960938 206.796875 L 527.929688 199.367188 L 516.199219 174.234375 C 515.15625 172.023438 514.296875 170.628906 513.609375 170.042969 C 512.925781 169.460938 511.757813 169.167969 510.105469 169.167969 L 510.105469 167.414063 L 524.425781 167.414063 L 524.425781 169.167969 C 521.910156 169.242188 520.65625 169.765625 520.65625 170.730469 C 520.65625 171.109375 521.148438 172.355469 522.140625 174.460938 L 530.710938 192.703125 "/>
<path style=" stroke:none;fill-rule:nonzero;fill:rgb(13.699341%,12.199402%,12.5%);fill-opacity:1;" d="M 561.984375 195.75 C 561.984375 194.632813 562.382813 193.675781 563.183594 192.875 C 563.980469 192.074219 564.941406 191.675781 566.058594 191.675781 C 567.199219 191.675781 568.171875 192.074219 568.972656 192.875 C 569.769531 193.675781 570.171875 194.632813 570.171875 195.75 C 570.171875 196.894531 569.765625 197.867188 568.953125 198.664063 C 568.140625 199.464844 567.175781 199.863281 566.058594 199.863281 C 564.914063 199.863281 563.949219 199.449219 563.164063 198.628906 C 562.375 197.800781 561.984375 196.84375 561.984375 195.75 Z M 561.984375 169.359375 C 561.984375 168.265625 562.367188 167.308594 563.144531 166.484375 C 563.917969 165.65625 564.890625 165.242188 566.058594 165.242188 C 567.199219 165.242188 568.171875 165.644531 568.972656 166.445313 C 569.769531 167.242188 570.171875 168.214844 570.171875 169.359375 C 570.171875 170.476563 569.765625 171.433594 568.953125 172.234375 C 568.140625 173.035156 567.175781 173.433594 566.058594 173.433594 C 564.914063 173.433594 563.949219 173.027344 563.164063 172.214844 C 562.375 171.402344 561.984375 170.449219 561.984375 169.359375 "/>
<path style=" stroke:none;fill-rule:nonzero;fill:rgb(13.699341%,12.199402%,12.5%);fill-opacity:1;" d="M 652.640625 199.824219 L 650.925781 199.824219 L 641.632813 175.070313 L 632.148438 199.824219 L 630.472656 199.824219 L 620.949219 175.070313 C 619.859375 172.253906 619.046875 170.5625 618.515625 170.003906 C 617.980469 169.445313 616.914063 169.167969 615.316406 169.167969 L 615.316406 167.414063 L 629.558594 167.414063 L 629.558594 169.167969 C 627.960938 169.167969 626.867188 169.3125 626.285156 169.605469 C 625.699219 169.898438 625.40625 170.398438 625.40625 171.109375 C 625.40625 171.617188 625.902344 173.101563 626.894531 175.566406 L 633.214844 192.285156 L 642.890625 167.414063 L 644.375 167.414063 L 653.742188 192.285156 L 660.597656 174.574219 C 661.335938 172.695313 661.703125 171.566406 661.703125 171.1875 C 661.703125 169.941406 660.421875 169.269531 657.855469 169.167969 L 657.855469 167.414063 L 667.988281 167.414063 L 667.988281 169.167969 C 666.769531 169.191406 665.808594 169.429688 665.113281 169.871094 C 664.414063 170.316406 663.773438 171.3125 663.1875 172.863281 L 662.351563 175.070313 L 652.640625 199.824219 "/>
<path style=" stroke:none;fill-rule:nonzero;fill:rgb(13.699341%,12.199402%,12.5%);fill-opacity:1;" d="M 701.316406 179.566406 L 697.164063 181.242188 C 690.617188 183.90625 687.339844 187.257813 687.339844 191.296875 C 687.339844 192.894531 687.757813 194.183594 688.597656 195.160156 C 689.433594 196.140625 690.527344 196.628906 691.871094 196.628906 C 693.066406 196.628906 694.449219 196.234375 696.023438 195.445313 C 697.597656 194.660156 699.363281 193.480469 701.316406 191.90625 Z M 712.363281 192.894531 L 713.773438 192.894531 C 713.542969 197.238281 711.410156 199.40625 707.371094 199.40625 C 705.648438 199.40625 704.28125 198.949219 703.277344 198.035156 C 702.277344 197.121094 701.621094 195.765625 701.316406 193.960938 C 698.777344 195.765625 696.460938 197.121094 694.367188 198.035156 C 692.273438 198.949219 690.398438 199.40625 688.75 199.40625 C 686.640625 199.40625 684.824219 198.796875 683.304688 197.578125 C 681.78125 196.359375 681.019531 194.746094 681.019531 192.742188 C 681.019531 190.128906 682.292969 187.84375 684.84375 185.886719 C 687.398438 183.933594 690.921875 182.027344 695.414063 180.175781 L 701.316406 177.773438 L 701.316406 176.25 C 701.316406 174.09375 701.179688 172.53125 700.898438 171.566406 C 700.617188 170.601563 699.894531 169.738281 698.726563 168.976563 C 697.558594 168.214844 696.023438 167.835938 694.117188 167.835938 C 690.3125 167.835938 688.191406 169.105469 687.757813 171.644531 C 687.351563 174.234375 686.285156 175.527344 684.558594 175.527344 C 683.011719 175.527344 682.238281 174.789063 682.238281 173.320313 C 682.238281 171.871094 683.265625 170.316406 685.320313 168.652344 C 687.378906 166.992188 690.578125 166.160156 694.917969 166.160156 C 698.144531 166.160156 700.644531 166.664063 702.421875 167.683594 C 704.199219 168.699219 705.375 169.851563 705.945313 171.148438 C 706.515625 172.441406 706.800781 174.421875 706.800781 177.089844 L 706.800781 189.695313 C 706.800781 192.640625 706.953125 194.53125 707.257813 195.371094 C 707.5625 196.207031 708.222656 196.628906 709.238281 196.628906 C 710.914063 196.628906 711.957031 195.382813 712.363281 192.894531 "/>
<path style=" stroke:none;fill-rule:nonzero;fill:rgb(13.699341%,12.199402%,12.5%);fill-opacity:1;" d="M 745.199219 169.167969 L 735.789063 169.167969 L 735.789063 188.019531 C 735.789063 190.914063 735.917969 192.863281 736.171875 193.867188 C 736.425781 194.867188 736.964844 195.675781 737.789063 196.285156 C 738.617188 196.894531 739.496094 197.199219 740.4375 197.199219 C 742.265625 197.199219 743.851563 196.15625 745.199219 194.074219 L 746.417969 194.800781 C 745.628906 196.476563 744.46875 197.738281 742.933594 198.589844 C 741.394531 199.4375 739.839844 199.863281 738.265625 199.863281 C 736.4375 199.863281 734.832031 199.324219 733.449219 198.246094 C 732.066406 197.167969 731.203125 195.902344 730.859375 194.457031 C 730.515625 193.007813 730.34375 190.46875 730.34375 186.839844 L 730.34375 169.167969 L 725.8125 169.167969 L 725.8125 167.414063 C 727.894531 167.363281 729.761719 166.488281 731.410156 164.785156 C 733.0625 163.085938 734.117188 160.699219 734.574219 157.628906 L 735.789063 157.628906 L 735.789063 167.414063 L 745.199219 167.414063 L 745.199219 169.167969 "/>
<path style=" stroke:none;fill-rule:nonzero;fill:rgb(13.699341%,12.199402%,12.5%);fill-opacity:1;" d="M 781.003906 176.441406 C 781.078125 175.859375 781.117188 175.335938 781.117188 174.878906 C 781.117188 172.644531 780.464844 170.914063 779.15625 169.683594 C 777.847656 168.449219 776.242188 167.835938 774.339844 167.835938 C 769.71875 167.835938 766.964844 170.703125 766.074219 176.441406 Z M 787.667969 177.964844 L 765.921875 177.964844 C 765.820313 179.464844 765.769531 180.578125 765.769531 181.316406 C 765.769531 186.800781 766.625 190.921875 768.339844 193.675781 C 770.054688 196.429688 772.613281 197.808594 776.015625 197.808594 C 780.636719 197.808594 783.910156 195.738281 785.839844 191.601563 L 787.667969 191.601563 C 786.855469 194.191406 785.242188 196.214844 782.832031 197.675781 C 780.421875 199.132813 777.792969 199.863281 774.949219 199.863281 C 772.308594 199.863281 769.8125 199.199219 767.464844 197.867188 C 765.117188 196.53125 763.191406 194.648438 761.695313 192.210938 C 760.195313 189.773438 759.449219 186.8125 759.449219 183.335938 C 759.449219 178.410156 760.894531 174.316406 763.789063 171.054688 C 766.683594 167.789063 770.300781 166.160156 774.644531 166.160156 C 778.730469 166.160156 781.894531 167.402344 784.128906 169.890625 C 786.363281 172.378906 787.542969 175.070313 787.667969 177.964844 "/>
<g clip-path="url(#clip1)" clip-rule="nonzero">
<path style=" stroke:none;fill-rule:nonzero;fill:rgb(13.699341%,12.199402%,12.5%);fill-opacity:1;" d="M 813.613281 174.117188 C 814.476563 171.859375 815.878906 169.96875 817.820313 168.445313 C 819.761719 166.921875 821.660156 166.160156 823.515625 166.160156 C 825.191406 166.160156 826.511719 166.679688 827.476563 167.71875 C 828.441406 168.761719 828.921875 169.828125 828.921875 170.917969 C 828.921875 171.65625 828.675781 172.289063 828.179688 172.824219 C 827.683594 173.355469 827.082031 173.621094 826.371094 173.621094 C 825.101563 173.621094 824.136719 172.683594 823.476563 170.804688 C 823.019531 169.535156 822.332031 168.902344 821.417969 168.902344 C 820.328125 168.902344 819.019531 169.644531 817.496094 171.128906 C 815.972656 172.613281 814.996094 174.15625 814.5625 175.757813 C 814.132813 177.355469 813.914063 179.550781 813.914063 182.34375 L 813.914063 187.90625 C 813.914063 191.230469 813.960938 193.324219 814.050781 194.191406 C 814.136719 195.054688 814.5 195.714844 815.136719 196.171875 C 815.769531 196.628906 816.898438 196.855469 818.523438 196.855469 L 819.589844 196.855469 L 819.589844 198.609375 L 803.023438 198.609375 L 803.023438 196.855469 L 803.824219 196.855469 C 805.347656 196.855469 806.433594 196.648438 807.078125 196.226563 C 807.726563 195.808594 808.113281 195.21875 808.242188 194.457031 C 808.367188 193.695313 808.433594 191.511719 808.433594 187.90625 L 808.433594 179.109375 C 808.433594 175.757813 808.386719 173.65625 808.296875 172.804688 C 808.210938 171.953125 807.847656 171.292969 807.214844 170.824219 C 806.578125 170.355469 805.449219 170.117188 803.824219 170.117188 L 803.023438 170.117188 L 803.023438 168.40625 C 805.410156 168.125 808.535156 167.378906 812.394531 166.160156 C 813.128906 168.164063 813.535156 170.816406 813.613281 174.117188 "/>
</g>
<path style=" stroke:none;fill-rule:nonzero;fill:rgb(93.699646%,82.398987%,11.399841%);fill-opacity:1;" d="M 193.898438 271.082031 C 192.488281 271.890625 190.949219 272.277344 189.429688 272.277344 C 186.3125 272.277344 183.277344 270.652344 181.613281 267.753906 L 150.574219 213.617188 L 83.785156 213.617188 L 52.746094 267.753906 C 51.082031 270.652344 48.046875 272.277344 44.929688 272.277344 C 43.410156 272.277344 41.871094 271.890625 40.460938 271.082031 C 36.148438 268.609375 34.65625 263.109375 37.128906 258.796875 L 67.417969 205.980469 L 67.417969 150.972656 L 37.929688 99.550781 C 35.457031 95.238281 36.949219 89.738281 41.261719 87.265625 C 45.570313 84.792969 51.070313 86.28125 53.542969 90.59375 L 81.628906 139.574219 L 152.730469 139.574219 L 180.816406 90.59375 C 183.289063 86.28125 188.789063 84.792969 193.101563 87.265625 C 197.410156 89.738281 198.902344 95.238281 196.429688 99.550781 L 166.945313 150.972656 L 166.945313 205.980469 L 197.230469 258.796875 C 199.703125 263.109375 198.210938 268.609375 193.898438 271.082031 Z M 88.851563 30.863281 C 88.851563 26.464844 92.453125 22.863281 96.851563 22.863281 L 160.289063 22.863281 C 164.6875 22.863281 168.289063 26.464844 168.289063 30.863281 L 168.289063 33.472656 C 168.289063 37.871094 164.6875 41.472656 160.289063 41.472656 L 96.851563 41.472656 C 92.453125 41.472656 88.851563 37.871094 88.851563 33.472656 Z M 229.941406 39.953125 C 227.042969 34.855469 223.761719 28.976563 220.960938 23.859375 C 219.414063 21.035156 219.371094 18.921875 222.585938 17.5625 C 226.441406 15.925781 227.171875 13.460938 225.003906 9.902344 C 222.972656 6.570313 220.542969 5.308594 217.074219 7.867188 C 214.355469 9.871094 212.195313 9.625 209.929688 6.867188 C 205.953125 2.019531 200.472656 0.113281 194.335938 0.253906 C 187.050781 0.414063 179.429688 -1.652344 172.878906 3.769531 C 171.714844 4.734375 169.378906 4.449219 167.585938 4.453125 C 149.019531 4.472656 130.449219 4.691406 111.890625 4.3125 C 99.898438 4.066406 87.933594 2.660156 75.941406 2.351563 C 72.835938 2.269531 69.265625 3.761719 66.648438 5.589844 C 63.933594 7.484375 62.261719 10.800781 59.871094 13.246094 C 56.925781 16.257813 53.71875 19.011719 50.621094 21.878906 C 49.878906 21.484375 49.136719 21.089844 48.394531 20.695313 C 48.789063 16.847656 49.1875 12.996094 49.730469 7.710938 C 46.894531 9.980469 44.648438 11.78125 42.015625 13.890625 C 40.429688 11.179688 39.132813 7.90625 36.898438 5.503906 C 35.28125 3.769531 31.699219 1.660156 30.238281 2.351563 C 21.929688 6.273438 13.894531 10.828125 6.035156 15.601563 C 4.804688 16.351563 4.054688 19.609375 4.574219 21.226563 C 6.683594 27.773438 9.378906 34.132813 12.15625 41.351563 C -1.164063 45.960938 0.0273438 56.769531 0.0273438 67.824219 L 0.0273438 300.292969 C 0.0273438 317.003906 7.003906 323.773438 23.992188 323.824219 C 86.550781 324.015625 149.109375 323.949219 211.667969 323.828125 C 223.351563 323.808594 233.320313 315.871094 233.320313 305.792969 L 234.359375 62.503906 C 234.371094 54.285156 234.179688 47.398438 229.941406 39.953125 "/>
<path style=" stroke:none;fill-rule:nonzero;fill:rgb(93.699646%,82.398987%,11.399841%);fill-opacity:1;" d="M 139.945313 157.574219 L 94.417969 157.574219 C 89.464844 157.574219 85.417969 161.621094 85.417969 166.574219 L 85.417969 186.617188 C 85.417969 191.570313 89.464844 195.617188 94.417969 195.617188 L 139.945313 195.617188 C 144.894531 195.617188 148.945313 191.570313 148.945313 186.617188 L 148.945313 166.574219 C 148.945313 161.621094 144.894531 157.574219 139.945313 157.574219 "/>
<path style=" stroke:none;fill-rule:nonzero;fill:rgb(13.699341%,12.199402%,12.5%);fill-opacity:1;" d="M 168.929688 904.117188 L 170.605469 904.117188 C 168.878906 910.035156 164.5625 912.992188 157.65625 912.992188 C 153.210938 912.992188 149.472656 911.480469 146.4375 908.460938 C 143.402344 905.4375 141.886719 901.4375 141.886719 896.460938 C 141.886719 891.359375 143.523438 887.222656 146.800781 884.046875 C 150.074219 880.871094 153.949219 879.285156 158.414063 879.285156 C 161.109375 879.285156 163.582031 879.875 165.84375 881.058594 C 168.101563 882.238281 169.234375 883.679688 169.234375 885.378906 C 169.234375 886.015625 169.023438 886.609375 168.605469 887.167969 C 168.183594 887.726563 167.582031 888.007813 166.796875 888.007813 C 165.117188 888.007813 164.089844 887.03125 163.710938 885.074219 C 163.40625 883.601563 162.9375 882.574219 162.300781 881.988281 C 161.640625 881.40625 160.359375 881.113281 158.453125 881.113281 C 155.050781 881.113281 152.492188 882.292969 150.78125 884.65625 C 149.066406 887.015625 148.210938 890.570313 148.210938 895.320313 C 148.210938 900.222656 149.128906 904.054688 150.96875 906.820313 C 152.8125 909.589844 155.597656 910.972656 159.328125 910.972656 C 164.359375 910.972656 167.558594 908.6875 168.929688 904.117188 "/>
<path style=" stroke:none;fill-rule:nonzero;fill:rgb(13.699341%,12.199402%,12.5%);fill-opacity:1;" d="M 194.261719 885.683594 C 195.785156 883.550781 197.492188 881.953125 199.382813 880.886719 C 201.273438 879.820313 203.351563 879.285156 205.609375 879.285156 C 208.175781 879.285156 210.300781 879.820313 211.988281 880.886719 C 213.679688 881.953125 214.777344 883.265625 215.285156 884.828125 C 215.792969 886.390625 216.046875 888.921875 216.046875 892.425781 L 216.046875 901.03125 C 216.046875 904.6875 216.117188 906.910156 216.253906 907.699219 C 216.394531 908.484375 216.808594 909.0625 217.492188 909.429688 C 218.179688 909.800781 219.449219 909.984375 221.300781 909.984375 L 221.300781 911.734375 L 205.191406 911.734375 L 205.191406 909.984375 L 205.914063 909.984375 C 207.769531 909.984375 208.96875 909.714844 209.515625 909.183594 C 210.058594 908.648438 210.378906 908.023438 210.464844 907.296875 C 210.554688 906.574219 210.601563 904.484375 210.601563 901.03125 L 210.601563 891.664063 C 210.601563 889.074219 210.449219 887.15625 210.144531 885.914063 C 209.839844 884.667969 209.121094 883.640625 207.992188 882.828125 C 206.859375 882.015625 205.445313 881.609375 203.742188 881.609375 C 201.765625 881.609375 199.988281 882.1875 198.410156 883.34375 C 196.839844 884.496094 195.453125 886.230469 194.261719 888.539063 L 194.261719 901.03125 C 194.261719 904.535156 194.316406 906.695313 194.433594 907.507813 C 194.546875 908.320313 194.933594 908.9375 195.59375 909.355469 C 196.253906 909.773438 197.460938 909.984375 199.210938 909.984375 L 199.210938 911.734375 L 183.367188 911.734375 L 183.367188 909.984375 L 184.167969 909.984375 C 185.996094 909.984375 187.183594 909.722656 187.730469 909.203125 C 188.273438 908.683594 188.59375 908.058594 188.679688 907.335938 C 188.769531 906.613281 188.816406 904.511719 188.816406 901.03125 L 188.816406 869.953125 C 188.816406 866.804688 188.515625 864.8125 187.917969 863.976563 C 187.324219 863.136719 185.894531 862.71875 183.636719 862.71875 L 183.636719 860.964844 C 187.570313 860.964844 190.847656 860.433594 193.460938 859.367188 L 194.261719 859.367188 L 194.261719 885.683594 "/>
<path style=" stroke:none;fill-rule:nonzero;fill:rgb(13.699341%,12.199402%,12.5%);fill-opacity:1;" d="M 256.269531 892.691406 L 252.117188 894.367188 C 245.566406 897.035156 242.292969 900.386719 242.292969 904.421875 C 242.292969 906.023438 242.710938 907.3125 243.550781 908.289063 C 244.386719 909.265625 245.480469 909.753906 246.824219 909.753906 C 248.019531 909.753906 249.402344 909.359375 250.976563 908.574219 C 252.550781 907.785156 254.316406 906.605469 256.269531 905.03125 Z M 267.316406 906.023438 L 268.722656 906.023438 C 268.496094 910.363281 266.363281 912.535156 262.324219 912.535156 C 260.597656 912.535156 259.234375 912.078125 258.230469 911.164063 C 257.226563 910.25 256.574219 908.890625 256.269531 907.089844 C 253.730469 908.890625 251.414063 910.25 249.320313 911.164063 C 247.226563 912.078125 245.351563 912.535156 243.699219 912.535156 C 241.59375 912.535156 239.777344 911.925781 238.253906 910.707031 C 236.730469 909.488281 235.96875 907.875 235.96875 905.871094 C 235.96875 903.253906 237.246094 900.96875 239.796875 899.015625 C 242.351563 897.058594 245.871094 895.15625 250.367188 893.300781 L 256.269531 890.902344 L 256.269531 889.378906 C 256.269531 887.222656 256.128906 885.660156 255.851563 884.695313 C 255.570313 883.730469 254.847656 882.867188 253.679688 882.105469 C 252.511719 881.34375 250.976563 880.960938 249.070313 880.960938 C 245.261719 880.960938 243.144531 882.230469 242.710938 884.769531 C 242.304688 887.359375 241.238281 888.65625 239.511719 888.65625 C 237.964844 888.65625 237.1875 887.917969 237.1875 886.445313 C 237.1875 885 238.21875 883.445313 240.273438 881.78125 C 242.328125 880.117188 245.53125 879.285156 249.871094 879.285156 C 253.097656 879.285156 255.597656 879.792969 257.375 880.808594 C 259.152344 881.824219 260.324219 882.980469 260.898438 884.273438 C 261.46875 885.570313 261.753906 887.550781 261.753906 890.214844 L 261.753906 902.824219 C 261.753906 905.769531 261.90625 907.660156 262.210938 908.496094 C 262.515625 909.335938 263.175781 909.753906 264.191406 909.753906 C 265.867188 909.753906 266.910156 908.511719 267.316406 906.023438 "/>
<path style=" stroke:none;fill-rule:nonzero;fill:rgb(13.699341%,12.199402%,12.5%);fill-opacity:1;" d="M 292.496094 887.246094 C 293.359375 884.984375 294.761719 883.09375 296.703125 881.570313 C 298.648438 880.046875 300.542969 879.285156 302.398438 879.285156 C 304.074219 879.285156 305.394531 879.804688 306.359375 880.847656 C 307.324219 881.890625 307.804688 882.953125 307.804688 884.046875 C 307.804688 884.78125 307.558594 885.417969 307.0625 885.949219 C 306.570313 886.484375 305.964844 886.75 305.253906 886.75 C 303.984375 886.75 303.019531 885.8125 302.359375 883.933594 C 301.902344 882.664063 301.21875 882.027344 300.304688 882.027344 C 299.210938 882.027344 297.902344 882.769531 296.378906 884.257813 C 294.855469 885.742188 293.878906 887.285156 293.449219 888.882813 C 293.015625 890.484375 292.800781 892.679688 292.800781 895.472656 L 292.800781 901.03125 C 292.800781 904.359375 292.84375 906.453125 292.933594 907.316406 C 293.023438 908.179688 293.382813 908.839844 294.019531 909.296875 C 294.652344 909.753906 295.785156 909.984375 297.410156 909.984375 L 298.476563 909.984375 L 298.476563 911.734375 L 281.90625 911.734375 L 281.90625 909.984375 L 282.707031 909.984375 C 284.230469 909.984375 285.316406 909.773438 285.964844 909.355469 C 286.613281 908.9375 286.996094 908.347656 287.125 907.582031 C 287.253906 906.820313 287.316406 904.640625 287.316406 901.03125 L 287.316406 892.234375 C 287.316406 888.882813 287.269531 886.78125 287.183594 885.933594 C 287.09375 885.082031 286.730469 884.421875 286.097656 883.953125 C 285.460938 883.480469 284.332031 883.246094 282.707031 883.246094 L 281.90625 883.246094 L 281.90625 881.53125 C 284.292969 881.253906 287.417969 880.503906 291.277344 879.285156 C 292.011719 881.292969 292.417969 883.945313 292.496094 887.246094 "/>
<path style=" stroke:none;fill-rule:nonzero;fill:rgb(13.699341%,12.199402%,12.5%);fill-opacity:1;" d="M 323.160156 863.367188 C 323.160156 862.273438 323.546875 861.335938 324.320313 860.546875 C 325.09375 859.761719 326.027344 859.367188 327.121094 859.367188 C 328.210938 859.367188 329.140625 859.761719 329.902344 860.546875 C 330.660156 861.335938 331.042969 862.273438 331.042969 863.367188 C 331.042969 864.484375 330.660156 865.433594 329.902344 866.222656 C 329.140625 867.011719 328.210938 867.402344 327.121094 867.402344 C 326.027344 867.402344 325.09375 867.011719 324.320313 866.222656 C 323.546875 865.433594 323.160156 864.484375 323.160156 863.367188 Z M 330.511719 879.285156 L 330.511719 901.03125 C 330.511719 904.359375 330.5625 906.453125 330.660156 907.316406 C 330.765625 908.179688 331.132813 908.839844 331.765625 909.296875 C 332.402344 909.753906 333.53125 909.984375 335.15625 909.984375 L 335.957031 909.984375 L 335.957031 911.734375 L 319.160156 911.734375 L 319.160156 909.984375 L 320.453125 909.984375 C 322.257813 909.984375 323.433594 909.722656 323.980469 909.203125 C 324.523438 908.683594 324.839844 908.058594 324.929688 907.335938 C 325.019531 906.613281 325.0625 904.511719 325.0625 901.03125 L 325.0625 891.585938 C 325.0625 887.929688 324.894531 885.695313 324.550781 884.886719 C 324.207031 884.070313 323.75 883.5625 323.179688 883.359375 C 322.609375 883.15625 321.609375 883.054688 320.1875 883.054688 L 319.160156 883.054688 L 319.160156 881.304688 C 323.679688 880.847656 327.183594 880.175781 329.671875 879.285156 L 330.511719 879.285156 "/>
<path style=" stroke:none;fill-rule:nonzero;fill:rgb(13.699341%,12.199402%,12.5%);fill-opacity:1;" d="M 368.828125 882.292969 L 359.421875 882.292969 L 359.421875 901.148438 C 359.421875 904.042969 359.550781 905.992188 359.804688 906.992188 C 360.058594 907.996094 360.597656 908.804688 361.421875 909.410156 C 362.246094 910.019531 363.128906 910.324219 364.070313 910.324219 C 365.898438 910.324219 367.484375 909.285156 368.828125 907.203125 L 370.050781 907.925781 C 369.261719 909.601563 368.101563 910.867188 366.566406 911.714844 C 365.027344 912.566406 363.472656 912.992188 361.898438 912.992188 C 360.070313 912.992188 358.464844 912.453125 357.078125 911.375 C 355.695313 910.292969 354.835938 909.03125 354.492188 907.582031 C 354.148438 906.136719 353.976563 903.597656 353.976563 899.964844 L 353.976563 882.292969 L 349.445313 882.292969 L 349.445313 880.542969 C 351.527344 880.492188 353.394531 879.617188 355.042969 877.914063 C 356.695313 876.214844 357.746094 873.828125 358.203125 870.753906 L 359.421875 870.753906 L 359.421875 880.542969 L 368.828125 880.542969 L 368.828125 882.292969 "/>
<g clip-path="url(#clip2)" clip-rule="nonzero">
<path style=" stroke:none;fill-rule:nonzero;fill:rgb(13.699341%,12.199402%,12.5%);fill-opacity:1;" d="M 400.371094 905.832031 L 407.609375 888.503906 C 408.648438 885.964844 409.167969 884.554688 409.167969 884.273438 C 409.167969 883.003906 407.761719 882.347656 404.941406 882.292969 L 404.941406 880.542969 L 415.910156 880.542969 L 415.910156 882.292969 C 414.210938 882.371094 412.964844 882.820313 412.179688 883.648438 C 411.390625 884.472656 410.414063 886.292969 409.246094 889.113281 L 395.34375 922.664063 C 394.023438 925.863281 392.855469 928.042969 391.839844 929.199219 C 390.824219 930.351563 389.707031 930.929688 388.488281 930.929688 C 386.839844 930.929688 386.011719 930.179688 386.011719 928.683594 C 386.011719 926.957031 387.332031 925.496094 389.972656 924.304688 C 391.523438 923.617188 392.558594 923.035156 393.078125 922.550781 C 393.597656 922.070313 394.113281 921.191406 394.621094 919.921875 L 397.589844 912.496094 L 385.859375 887.359375 C 384.820313 885.152344 383.957031 883.753906 383.269531 883.171875 C 382.585938 882.585938 381.417969 882.292969 379.765625 882.292969 L 379.765625 880.542969 L 394.085938 880.542969 L 394.085938 882.292969 C 391.574219 882.371094 390.316406 882.890625 390.316406 883.855469 C 390.316406 884.238281 390.8125 885.480469 391.800781 887.589844 L 400.371094 905.832031 "/>
</g>
<path style=" stroke:none;fill-rule:nonzero;fill:rgb(13.699341%,12.199402%,12.5%);fill-opacity:1;" d="M 431.644531 908.878906 C 431.644531 907.761719 432.042969 906.804688 432.84375 906.003906 C 433.644531 905.203125 434.601563 904.804688 435.71875 904.804688 C 436.863281 904.804688 437.832031 905.203125 438.632813 906.003906 C 439.433594 906.804688 439.832031 907.761719 439.832031 908.878906 C 439.832031 910.019531 439.425781 910.992188 438.613281 911.792969 C 437.800781 912.59375 436.835938 912.992188 435.71875 912.992188 C 434.578125 912.992188 433.613281 912.578125 432.824219 911.753906 C 432.039063 910.929688 431.644531 909.972656 431.644531 908.878906 Z M 431.644531 882.484375 C 431.644531 881.394531 432.03125 880.433594 432.804688 879.609375 C 433.578125 878.785156 434.550781 878.371094 435.71875 878.371094 C 436.863281 878.371094 437.832031 878.773438 438.632813 879.570313 C 439.433594 880.371094 439.832031 881.34375 439.832031 882.484375 C 439.832031 883.601563 439.425781 884.5625 438.613281 885.359375 C 437.800781 886.160156 436.835938 886.558594 435.71875 886.558594 C 434.578125 886.558594 433.613281 886.152344 432.824219 885.339844 C 432.039063 884.527344 431.644531 883.578125 431.644531 882.484375 "/>
<path style=" stroke:none;fill-rule:nonzero;fill:rgb(13.699341%,12.199402%,12.5%);fill-opacity:1;" d="M 522.300781 912.953125 L 520.585938 912.953125 L 511.292969 888.199219 L 501.8125 912.953125 L 500.136719 912.953125 L 490.613281 888.199219 C 489.523438 885.378906 488.710938 883.691406 488.175781 883.132813 C 487.644531 882.574219 486.574219 882.292969 484.976563 882.292969 L 484.976563 880.542969 L 499.222656 880.542969 L 499.222656 882.292969 C 497.621094 882.292969 496.53125 882.441406 495.945313 882.734375 C 495.363281 883.023438 495.070313 883.527344 495.070313 884.238281 C 495.070313 884.746094 495.566406 886.230469 496.554688 888.691406 L 502.878906 905.414063 L 512.550781 880.542969 L 514.035156 880.542969 L 523.40625 905.414063 L 530.261719 887.703125 C 530.996094 885.824219 531.367188 884.695313 531.367188 884.3125 C 531.367188 883.070313 530.082031 882.394531 527.519531 882.292969 L 527.519531 880.542969 L 537.648438 880.542969 L 537.648438 882.292969 C 536.429688 882.320313 535.472656 882.554688 534.773438 883 C 534.074219 883.445313 533.433594 884.441406 532.851563 885.988281 L 532.011719 888.199219 L 522.300781 912.953125 "/>
<path style=" stroke:none;fill-rule:nonzero;fill:rgb(13.699341%,12.199402%,12.5%);fill-opacity:1;" d="M 570.980469 892.691406 L 566.828125 894.367188 C 560.277344 897.035156 557.003906 900.386719 557.003906 904.421875 C 557.003906 906.023438 557.421875 907.3125 558.257813 908.289063 C 559.097656 909.265625 560.1875 909.753906 561.535156 909.753906 C 562.726563 909.753906 564.113281 909.359375 565.6875 908.574219 C 567.261719 907.785156 569.023438 906.605469 570.980469 905.03125 Z M 582.023438 906.023438 L 583.433594 906.023438 C 583.203125 910.363281 581.074219 912.535156 577.035156 912.535156 C 575.308594 912.535156 573.945313 912.078125 572.941406 911.164063 C 571.9375 910.25 571.285156 908.890625 570.980469 907.089844 C 568.441406 908.890625 566.125 910.25 564.027344 911.164063 C 561.933594 912.078125 560.0625 912.535156 558.410156 912.535156 C 556.304688 912.535156 554.488281 911.925781 552.964844 910.707031 C 551.441406 909.488281 550.679688 907.875 550.679688 905.871094 C 550.679688 903.253906 551.957031 900.96875 554.507813 899.015625 C 557.058594 897.058594 560.582031 895.15625 565.074219 893.300781 L 570.980469 890.902344 L 570.980469 889.378906 C 570.980469 887.222656 570.839844 885.660156 570.5625 884.695313 C 570.28125 883.730469 569.558594 882.867188 568.390625 882.105469 C 567.222656 881.34375 565.6875 880.960938 563.78125 880.960938 C 559.972656 880.960938 557.851563 882.230469 557.421875 884.769531 C 557.015625 887.359375 555.949219 888.65625 554.222656 888.65625 C 552.671875 888.65625 551.898438 887.917969 551.898438 886.445313 C 551.898438 885 552.925781 883.445313 554.984375 881.78125 C 557.039063 880.117188 560.238281 879.285156 564.582031 879.285156 C 567.804688 879.285156 570.308594 879.792969 572.085938 880.808594 C 573.863281 881.824219 575.035156 882.980469 575.605469 884.273438 C 576.179688 885.570313 576.464844 887.550781 576.464844 890.214844 L 576.464844 902.824219 C 576.464844 905.769531 576.617188 907.660156 576.921875 908.496094 C 577.226563 909.335938 577.886719 909.753906 578.902344 909.753906 C 580.578125 909.753906 581.617188 908.511719 582.023438 906.023438 "/>
<path style=" stroke:none;fill-rule:nonzero;fill:rgb(13.699341%,12.199402%,12.5%);fill-opacity:1;" d="M 614.859375 882.292969 L 605.453125 882.292969 L 605.453125 901.148438 C 605.453125 904.042969 605.578125 905.992188 605.835938 906.992188 C 606.089844 907.996094 606.628906 908.804688 607.453125 909.410156 C 608.277344 910.019531 609.160156 910.324219 610.101563 910.324219 C 611.929688 910.324219 613.515625 909.285156 614.859375 907.203125 L 616.078125 907.925781 C 615.292969 909.601563 614.128906 910.867188 612.59375 911.714844 C 611.058594 912.566406 609.503906 912.992188 607.929688 912.992188 C 606.101563 912.992188 604.492188 912.453125 603.109375 911.375 C 601.726563 910.292969 600.863281 909.03125 600.519531 907.582031 C 600.179688 906.136719 600.007813 903.597656 600.007813 899.964844 L 600.007813 882.292969 L 595.476563 882.292969 L 595.476563 880.542969 C 597.558594 880.492188 599.421875 879.617188 601.074219 877.914063 C 602.722656 876.214844 603.777344 873.828125 604.234375 870.753906 L 605.453125 870.753906 L 605.453125 880.542969 L 614.859375 880.542969 L 614.859375 882.292969 "/>
<path style=" stroke:none;fill-rule:nonzero;fill:rgb(13.699341%,12.199402%,12.5%);fill-opacity:1;" d="M 650.664063 889.570313 C 650.742188 888.984375 650.78125 888.464844 650.78125 888.007813 C 650.78125 885.773438 650.125 884.039063 648.820313 882.808594 C 647.511719 881.578125 645.90625 880.960938 644 880.960938 C 639.378906 880.960938 636.625 883.832031 635.738281 889.570313 Z M 657.332031 891.09375 L 635.585938 891.09375 C 635.484375 892.589844 635.433594 893.707031 635.433594 894.445313 C 635.433594 899.929688 636.289063 904.046875 638.003906 906.804688 C 639.714844 909.558594 642.273438 910.933594 645.675781 910.933594 C 650.296875 910.933594 653.574219 908.867188 655.503906 904.726563 L 657.332031 904.726563 C 656.519531 907.316406 654.90625 909.34375 652.492188 910.800781 C 650.082031 912.261719 647.453125 912.992188 644.609375 912.992188 C 641.96875 912.992188 639.476563 912.324219 637.125 910.992188 C 634.777344 909.660156 632.855469 907.773438 631.355469 905.335938 C 629.859375 902.898438 629.109375 899.941406 629.109375 896.460938 C 629.109375 891.535156 630.558594 887.441406 633.449219 884.179688 C 636.347656 880.917969 639.964844 879.285156 644.304688 879.285156 C 648.394531 879.285156 651.554688 880.53125 653.789063 883.019531 C 656.023438 885.507813 657.203125 888.199219 657.332031 891.09375 "/>
<path style=" stroke:none;fill-rule:nonzero;fill:rgb(13.699341%,12.199402%,12.5%);fill-opacity:1;" d="M 683.273438 887.246094 C 684.136719 884.984375 685.539063 883.09375 687.480469 881.570313 C 689.425781 880.046875 691.324219 879.285156 693.175781 879.285156 C 694.851563 879.285156 696.171875 879.804688 697.136719 880.847656 C 698.101563 881.890625 698.585938 882.953125 698.585938 884.046875 C 698.585938 884.78125 698.335938 885.417969 697.839844 885.949219 C 697.347656 886.484375 696.742188 886.75 696.03125 886.75 C 694.761719 886.75 693.796875 885.8125 693.136719 883.933594 C 692.679688 882.664063 691.996094 882.027344 691.082031 882.027344 C 689.988281 882.027344 688.683594 882.769531 687.160156 884.257813 C 685.636719 885.742188 684.65625 887.285156 684.226563 888.882813 C 683.792969 890.484375 683.578125 892.679688 683.578125 895.472656 L 683.578125 901.03125 C 683.578125 904.359375 683.621094 906.453125 683.710938 907.316406 C 683.800781 908.179688 684.160156 908.839844 684.796875 909.296875 C 685.433594 909.753906 686.5625 909.984375 688.1875 909.984375 L 689.253906 909.984375 L 689.253906 911.734375 L 672.6875 911.734375 L 672.6875 909.984375 L 673.484375 909.984375 C 675.007813 909.984375 676.09375 909.773438 676.742188 909.355469 C 677.390625 908.9375 677.777344 908.347656 677.902344 907.582031 C 678.03125 906.820313 678.09375 904.640625 678.09375 901.03125 L 678.09375 892.234375 C 678.09375 888.882813 678.050781 886.78125 677.960938 885.933594 C 677.871094 885.082031 677.511719 884.421875 676.875 883.953125 C 676.242188 883.480469 675.109375 883.246094 673.484375 883.246094 L 672.6875 883.246094 L 672.6875 881.53125 C 675.074219 881.253906 678.195313 880.503906 682.054688 879.285156 C 682.789063 881.292969 683.199219 883.945313 683.273438 887.246094 "/>
<path style=" stroke:none;fill-rule:nonzero;fill:rgb(93.699646%,82.398987%,11.399841%);fill-opacity:1;" d="M 500.632813 764.300781 C 499.222656 765.109375 497.683594 765.496094 496.164063 765.496094 C 493.046875 765.496094 490.011719 763.871094 488.347656 760.96875 L 457.308594 706.839844 L 390.519531 706.839844 L 359.476563 760.96875 C 357.816406 763.871094 354.78125 765.496094 351.660156 765.496094 C 350.144531 765.496094 348.605469 765.109375 347.191406 764.300781 C 342.882813 761.828125 341.390625 756.328125 343.863281 752.015625 L 374.148438 699.199219 L 374.148438 644.1875 L 344.664063 592.769531 C 342.191406 588.457031 343.679688 582.957031 347.992188 580.484375 C 352.304688 578.011719 357.804688 579.5 360.277344 583.8125 L 388.363281 632.792969 L 459.464844 632.792969 L 487.550781 583.8125 C 490.019531 579.5 495.523438 578.011719 499.835938 580.484375 C 504.144531 582.957031 505.636719 588.457031 503.164063 592.769531 L 473.675781 644.1875 L 473.675781 699.199219 L 503.964844 752.015625 C 506.4375 756.328125 504.945313 761.828125 500.632813 764.300781 Z M 395.585938 524.082031 C 395.585938 519.683594 399.1875 516.082031 403.585938 516.082031 L 467.019531 516.082031 C 471.421875 516.082031 475.019531 519.683594 475.019531 524.082031 L 475.019531 526.691406 C 475.019531 531.089844 471.421875 534.691406 467.019531 534.691406 L 403.585938 534.691406 C 399.1875 534.691406 395.585938 531.089844 395.585938 526.691406 Z M 536.675781 533.171875 C 533.777344 528.074219 530.492188 522.195313 527.691406 517.078125 C 526.148438 514.253906 526.105469 512.140625 529.320313 510.78125 C 533.171875 509.144531 533.902344 506.679688 531.734375 503.121094 C 529.707031 499.789063 527.277344 498.527344 523.808594 501.085938 C 521.089844 503.089844 518.925781 502.84375 516.664063 500.085938 C 512.6875 495.238281 507.207031 493.332031 501.066406 493.472656 C 493.785156 493.632813 486.160156 491.566406 479.609375 496.988281 C 478.449219 497.953125 476.113281 497.667969 474.320313 497.671875 C 455.753906 497.6875 437.183594 497.910156 418.625 497.53125 C 406.632813 497.285156 394.667969 495.878906 382.675781 495.566406 C 379.566406 495.488281 376 496.980469 373.382813 498.808594 C 370.667969 500.703125 368.992188 504.019531 366.605469 506.464844 C 363.660156 509.476563 360.449219 512.230469 357.355469 515.097656 C 356.613281 514.703125 355.871094 514.308594 355.128906 513.914063 C 355.523438 510.066406 355.921875 506.21875 356.464844 500.929688 C 353.628906 503.199219 351.382813 505 348.75 507.109375 C 347.164063 504.398438 345.867188 501.125 343.632813 498.722656 C 342.015625 496.988281 338.433594 494.878906 336.96875 495.570313 C 328.660156 499.492188 320.628906 504.046875 312.765625 508.820313 C 311.535156 509.570313 310.789063 512.828125 311.308594 514.445313 C 313.417969 520.992188 316.109375 527.351563 318.890625 534.566406 C 305.566406 539.179688 306.761719 549.988281 306.761719 561.042969 L 306.761719 793.511719 C 306.761719 810.222656 313.738281 816.992188 330.726563 817.042969 C 393.285156 817.234375 455.84375 817.167969 518.402344 817.050781 C 530.085938 817.027344 540.054688 809.09375 540.054688 799.011719 L 541.09375 555.722656 C 541.105469 547.503906 540.914063 540.617188 536.675781 533.171875 "/>
<path style=" stroke:none;fill-rule:nonzero;fill:rgb(93.699646%,82.398987%,11.399841%);fill-opacity:1;" d="M 446.675781 650.792969 L 401.148438 650.792969 C 396.199219 650.792969 392.148438 654.84375 392.148438 659.792969 L 392.148438 679.839844 C 392.148438 684.789063 396.199219 688.839844 401.148438 688.839844 L 446.675781 688.839844 C 451.628906 688.839844 455.675781 684.789063 455.675781 679.839844 L 455.675781 659.792969 C 455.675781 654.84375 451.628906 650.792969 446.675781 650.792969 "/>
</g>
</svg>
