<?xml version="1.0" encoding="utf-8"?>
<!-- Generator: Adobe Illustrator 16.0.0, SVG Export Plug-In . SVG Version: 6.00 Build 0)  -->
<!DOCTYPE svg PUBLIC "-//W3C//DTD SVG 1.1//EN" "http://www.w3.org/Graphics/SVG/1.1/DTD/svg11.dtd">
<svg version="1.1" id="Layer_1" xmlns="http://www.w3.org/2000/svg" xmlns:xlink="http://www.w3.org/1999/xlink" x="0px" y="0px"
	 width="1135px" height="235px" viewBox="0 0 1135 235" enable-background="new 0 0 1135 235" xml:space="preserve">
<path d="M213.131,67.075c-7.461-38.251-33.085-65.988-79.312-66.409H131.8C79.052,0.994,39.913,27.462,19.167,67.075
	C7.706,89.44,1.86,114.262,2.133,139.396c0,50.826,28.158,82.83,64.247,91.795c7,1.735,14.189,2.602,21.4,2.579
	c7.898,0.092,15.777-0.78,23.466-2.579c14.221-3.208,26.939-11.133,36.089-22.481v20.18c-0.025,0.298-0.025,0.595,0,0.895
	c0.362,0.805,1.139,1.347,2.019,1.407h31.209c0.378-0.044,0.745-0.152,1.08-0.331c0.522-0.329,0.893-0.854,1.033-1.453
	l21.54-110.195c0.023-0.2,0.023-0.403,0-0.609c0-1.298-1.049-2.347-2.346-2.347h-78.327c-1.09-0.036-2.063,0.684-2.347,1.738
	l-5.912,29.845v0.426c-0.051,0.307-0.051,0.629,0,0.938c0.363,0.862,1.22,1.421,2.159,1.406h39.515
	c-8.495,23.466-28.158,43.977-59.603,43.977c-31.442,0-51.248-22.67-51.248-61.386C45.69,109.265,53.511,85.92,68.26,67.075
	c13.71-17.293,34.579-27.353,56.643-27.316c21.917,0,34.683,9.997,43.224,27.316c2.206,4.545,4.071,9.253,5.584,14.078
	c0.359,0.875,1.211,1.448,2.158,1.453h0.658l35.433-9.386c0.238-0.041,0.463-0.143,0.657-0.28c0.704-0.431,1.132-1.196,1.127-2.017
	v-0.374c0-1.129-0.423-2.302-0.658-3.429 M299.907,3.013c0-1.298-1.052-2.348-2.346-2.348h-35.949
	c-1.144,0.01-2.115,0.844-2.299,1.97l-12.484,64.439l-31.208,161.25v0.518c-0.071,0.293-0.071,0.6,0,0.895
	c0.36,0.87,1.21,1.448,2.159,1.453h35.901c1.079,0.031,2.035-0.694,2.3-1.738l31.396-162.377l12.342-63.687V3.013 M412.165,67.075
	c-6.979-1.76-14.155-2.623-21.353-2.587c-8.611-0.099-17.208,0.762-25.624,2.587c-15.746,3.771-30.106,11.907-41.44,23.466
	c-19.524,18.771-28.158,42.988-28.158,73.914c0,32.102,18.536,58.567,50.262,66.736c6.997,1.755,14.187,2.625,21.4,2.579
	c8.783,0.165,17.554-0.705,26.139-2.579c15.731-3.77,30.08-11.904,41.392-23.466c19.525-18.772,28.158-42.938,28.158-73.87
	c0-32.152-18.773-58.664-50.262-66.78 M407.189,181.678c-8.403,11.467-21.925,18.057-36.136,17.6
	c-19.196,0-31.913-15.629-31.913-41.02c0-17.598,3.895-31.255,12.059-41.672c8.457-11.38,21.969-17.879,36.138-17.366
	c19.194,0,31.913,15.628,31.913,41.018c0,17.601-3.943,31.257-12.062,41.675 M597.493,90.675
	c-5.487-10.695-17.88-19.425-32.24-23.465c-5.855-1.709-11.924-2.575-18.023-2.58c-7.028-0.058-14.034,0.813-20.837,2.58
	c-22.136,4.813-37.553,24.913-36.465,47.545c0,21.822,14.36,34.539,33.556,43.64c19.194,9.107,28.158,14.648,28.158,24.08
	c0,11.732-9.808,16.94-20.837,16.94c-15.533,0-26.611-9.388-31.255-25.574c-0.351-0.95-1.245-1.581-2.253-1.596
	c-0.295-0.046-0.595-0.046-0.89,0l-30.228,12.577c-0.875,0.357-1.448,1.208-1.45,2.158v0.37
	c5.101,21.074,21.118,37.792,41.955,43.788c6.339,1.76,12.893,2.625,19.474,2.584c7.758,0.063,15.494-0.808,23.044-2.584
	c24.874-6.146,41.434-23.466,41.434-54.392c0-22.76-16.938-33.832-33.833-41.67c-11.075-5.215-28.158-10.091-28.158-21.496
	c-0.089-8.038,6.351-14.619,14.385-14.711c0.525-0.01,1.052,0.017,1.574,0.063c9.489,0.005,18.383,4.63,23.838,12.393
	c0.449,0.588,1.141,0.931,1.877,0.936c0.431-0.01,0.847-0.123,1.224-0.323l25.293-18.21c0.895-0.66,1.16-1.893,0.613-2.86
	 M699.381,67.075c-5.859-1.707-11.924-2.577-18.025-2.587c-7.04-0.053-14.061,0.817-20.879,2.587
	C638.355,71.906,622.961,92,624.059,114.61c0,21.825,14.08,34.546,33.551,43.648c18.539,8.778,28.16,14.644,28.16,24.075
	c0,11.732-9.757,16.944-20.84,16.944c-15.53,0-26.656-9.387-31.303-25.675c-0.328-0.896-1.189-1.504-2.152-1.504
	c-0.313-0.063-0.633-0.063-0.947,0l-30.172,12.536c-0.865,0.362-1.422,1.218-1.406,2.158c-0.025,0.155-0.025,0.313,0,0.467
	c5.125,21.028,21.109,37.695,41.911,43.696c6.354,1.75,12.925,2.615,19.524,2.579c7.736,0.07,15.459-0.803,22.992-2.579
	c24.872-6.15,41.486-23.466,41.486-54.392c0-22.765-16.943-33.842-33.886-41.68c-11.077-5.205-28.155-10.086-28.155-21.496
	c-0.092-8.029,6.354-14.619,14.38-14.706c0.526-0.005,1.054,0.015,1.576,0.07c9.462,0.004,18.335,4.605,23.789,12.337
	c0.44,0.631,1.161,0.998,1.93,0.988c0.425-0.017,0.841-0.128,1.218-0.328l25.579-18.21c0.503-0.477,0.793-1.137,0.798-1.828
	c0-0.357-0.082-0.715-0.237-1.037c-5.487-10.741-17.876-19.476-32.241-23.465 M804.596,67.075h-35.762
	c-1.034,0.013-1.943,0.696-2.253,1.686l-30.97,159.565c-0.029,0.175-0.029,0.349,0,0.518c-0.049,0.298-0.049,0.595,0,0.895
	c0.367,0.865,1.219,1.434,2.156,1.453h35.762c0.426-0.015,0.842-0.126,1.219-0.331c0.521-0.313,0.895-0.82,1.035-1.407
	L806.85,69.604c-0.025-1.284-1.06-2.318-2.346-2.348 M931.26,67.075c-6.784-1.77-13.776-2.64-20.787-2.587
	c-7.896-0.012-15.768,0.854-23.465,2.587c-43.75,9.99-74.55,49.221-73.873,94.094c0,37.546,20.096,62.326,49.518,70.021
	c6.789,1.758,13.775,2.625,20.787,2.579c8.195,0.078,16.361-0.788,24.354-2.579c22.861-5.305,39.514-18.772,55.006-41.254
	c0.652-1.103,0.295-2.52-0.798-3.189l-28.155-14.598c-0.296-0.149-0.614-0.229-0.943-0.234c-0.696,0.02-1.349,0.346-1.779,0.89
	c-11.778,16.945-25.25,26.473-43.88,26.473c-21.492,0-33.228-14.972-33.228-31.917v-5.205h116.108
	c0.421-0.015,0.841-0.128,1.219-0.331c0.483-0.303,0.851-0.769,1.029-1.311c2.684-9.871,4.057-20.047,4.086-30.275
	c0-30.313-15.492-55.282-45.006-63.164 M861.617,130.238c6.881-18.288,24.113-30.625,43.648-31.253
	c20.506,0,29.939,10.749,31.255,31.253H861.617z M1107.678,103.913c0.343,0.193,0.725,0.29,1.121,0.285
	c0.431,0.01,0.852-0.111,1.224-0.332c0.416-0.271,0.745-0.664,0.938-1.126l11.967-31.678c0.049-0.313,0.049-0.629,0-0.94
	c-0.02-0.938-0.585-1.787-1.45-2.159l-2.21-0.798c-5.406-1.91-11.121-2.785-16.851-2.58c-5.947-0.026-11.866,0.844-17.552,2.58
	c-13.544,4.465-25.376,13.007-33.881,24.451l4.265-21.54c0.367-1.188-0.3-2.452-1.494-2.814c-0.241-0.072-0.498-0.104-0.754-0.097
	H1017.1c-1.132,0.005-2.099,0.817-2.302,1.927l-31.019,159.563c-0.023,0.123-0.023,0.251,0,0.377c-0.072,0.293-0.072,0.595,0,0.888
	c0.358,0.88,1.214,1.453,2.157,1.458h36.327c0.425-0.013,0.841-0.129,1.218-0.329c0.522-0.331,0.895-0.854,1.035-1.458
	l11.072-56.315c9.763-51.624,37.546-72.273,57.955-72.273c4.879-0.095,9.699,0.967,14.08,3.1 M793.896,3.199
	c-12.774,0-23.132,10.359-23.132,23.141c0,12.777,10.357,23.135,23.132,23.135c12.779,0,23.136-10.357,23.136-23.135l0,0
	c0.267-12.521-9.67-22.88-22.188-23.141C794.529,3.194,794.215,3.194,793.896,3.199 M1109.79,188.104
	c-12.832,0.056-23.194,10.5-23.136,23.328c0.033,8.079,4.26,15.564,11.164,19.759c7.412,4.192,16.479,4.192,23.886,0
	c10.967-6.665,14.453-20.956,7.79-31.917C1125.307,192.385,1117.846,188.159,1109.79,188.104"/>
</svg>
